<svg xmlns="http://www.w3.org/2000/svg" viewBox="0 0 900 1200" width="900" height="1200">
  <defs>
    <filter id="grain">
      <feTurbulence type="fractalNoise" baseFrequency="0.9" numOctaves="2" seed="7" result="noise"/>
      <feColorMatrix in="noise" type="matrix" values="0 0 0 0 0  0 0 0 0 0  0 0 0 0 0  0 0 0 0.06 0"/>
      <feComposite operator="over" in2="SourceGraphic"/>
    </filter>
    <filter id="softblur"><feGaussianBlur stdDeviation="2.4"/></filter>
    <linearGradient id="sky" x1="0" y1="0" x2="0" y2="1">
      <stop offset="0%" stop-color="#050608"/>
      <stop offset="60%" stop-color="#0b0d11"/>
      <stop offset="100%" stop-color="#04050600"/>
    </linearGradient>
    <linearGradient id="glassGrad" x1="0" y1="0" x2="0" y2="1">
      <stop offset="0%" stop-color="#1b2733" stop-opacity="0.9"/>
      <stop offset="100%" stop-color="#05070a" stop-opacity="0.95"/>
    </linearGradient>
    <radialGradient id="lamp" cx="50%" cy="0%" r="80%">
      <stop offset="0%" stop-color="#3a4550" stop-opacity="0.5"/>
      <stop offset="100%" stop-color="#000" stop-opacity="0"/>
    </radialGradient>
  </defs>

  <rect width="900" height="1200" fill="url(#sky)"/>

  <!-- wet street reflection -->
  <rect x="0" y="980" width="900" height="220" fill="#03040509"/>
  <g opacity="0.25">
    <rect x="0" y="990" width="900" height="2" fill="#5a6570"/>
    <rect x="0" y="1010" width="900" height="1" fill="#40474f"/>
  </g>

  <!-- building silhouette -->
  <rect x="0" y="120" width="900" height="900" fill="#0a0c10"/>
  <rect x="0" y="120" width="900" height="60" fill="#0d1014"/>

  <!-- storefront glass -->
  <rect x="120" y="260" width="660" height="680" fill="url(#glassGrad)" stroke="#262b32" stroke-width="3"/>
  <rect x="150" y="290" width="600" height="600" fill="#0d1116" opacity="0.5"/>

  <!-- faint interior dim shelving -->
  <g opacity="0.18" stroke="#4a5560" stroke-width="2">
    <line x1="200" y1="330" x2="200" y2="820"/>
    <line x1="320" y1="330" x2="320" y2="820"/>
    <line x1="440" y1="330" x2="440" y2="820"/>
    <line x1="560" y1="330" x2="560" y2="820"/>
    <line x1="680" y1="330" x2="680" y2="820"/>
  </g>

  <!-- reflected streetlamp glow on glass -->
  <ellipse cx="640" cy="380" rx="220" ry="260" fill="url(#lamp)"/>

  <!-- reflection: blurry figure across the street, black jacket + white shoes -->
  <g filter="url(#softblur)" opacity="0.55">
    <ellipse cx="300" cy="560" rx="34" ry="46" fill="#050607"/>
    <rect x="270" y="600" width="60" height="150" rx="14" fill="#0a0b0d"/>
    <rect x="278" y="748" width="22" height="26" rx="5" fill="#c9c9c9"/>
    <rect x="304" y="748" width="22" height="26" rx="5" fill="#c9c9c9"/>
  </g>

  <!-- door frame -->
  <rect x="380" y="360" width="180" height="580" fill="#070809" opacity="0.7" stroke="#2b3038" stroke-width="2"/>

  <!-- door plate with case number -->
  <g>
    <rect x="595" y="880" width="86" height="46" rx="3" fill="#12151a" stroke="#3a3f47" stroke-width="1.5"/>
    <text x="638" y="911" text-anchor="middle" font-family="monospace" font-size="24" letter-spacing="2" fill="#c9b58a">0917</text>
  </g>

  <rect width="900" height="1200" filter="url(#grain)" opacity="0.5"/>
  <rect width="900" height="1200" fill="#000" opacity="0.12"/>
</svg>
